<svg width="100px" height="100px" xmlns="http://www.w3.org/2000/svg" xmlns:xlink="http://www.w3.org/1999/xlink">
<g style="">  <path d="M86.000000,18.000000 C87.960869,17.428723,89.087983,15.359775,88.516706,13.398906 C87.945429,11.438037,85.876481,10.310923,83.900172,10.897639 L17.585739,30.336492 C16.134387,30.753370,14.821994,31.463606,13.710320,32.374561 C11.224494,34.165591,9.603303,37.083734,9.603303,40.387876 L9.603303,41.005473 L9.603303,57.680581 L9.603303,79.914057 C9.603303,85.364347,14.034559,89.795603,19.484848,89.795603 L78.774120,89.795603 C84.224410,89.795603,88.655665,85.364347,88.655665,79.914057 L88.655665,40.387876 C88.655665,34.937587,84.224410,30.506331,78.774120,30.506331 L43.339516,30.506331 L86.000000,18.000000 Z M66.422190,47.799035 C73.243974,47.799035,78.774122,53.329183,78.774122,60.150966 C78.774122,66.972750,73.243974,72.502898,66.422190,72.502898 C59.600407,72.502898,54.070259,66.972750,54.070259,60.150966 C54.070259,53.329183,59.600407,47.799035,66.422190,47.799035 Z M21.955237,50.269421 C21.955237,48.910709,23.066911,47.799035,24.425623,47.799035 L39.247941,47.799035 C40.606653,47.799035,41.718327,48.910709,41.718327,50.269421 C41.718327,51.628134,40.606653,52.739808,39.247941,52.739808 L24.425623,52.739808 C23.066911,52.739808,21.955237,51.628134,21.955237,50.269421 Z M19.484850,60.150966 C19.484850,58.792254,20.596524,57.680580,21.955237,57.680580 L41.718327,57.680580 C43.077040,57.680580,44.188714,58.792254,44.188714,60.150966 C44.188714,61.509679,43.077040,62.621353,41.718327,62.621353 L21.955237,62.621353 C20.596524,62.621353,19.484850,61.509679,19.484850,60.150966 Z M21.955237,70.032512 C21.955237,68.673799,23.066911,67.562125,24.425623,67.562125 L39.247941,67.562125 C40.606653,67.562125,41.718327,68.673799,41.718327,70.032512 C41.718327,71.391224,40.606653,72.502898,39.247941,72.502898 L24.425623,72.502898 C23.066911,72.502898,21.955237,71.391224,21.955237,70.032512 Z " style="fill: rgba(255, 255, 255, 1.000000); stroke-width: 0.000000px; stroke: rgba(255, 255, 255, 1.000000); " fill="#ffffff" stroke="#ffffff" stroke-width="0.000000" />
</g></svg>